<?xml version="1.0" encoding="UTF-8"?><svg id="Layer_1" xmlns="http://www.w3.org/2000/svg" viewBox="0 0 523.02 160.97"><defs><style>.cls-1{fill:#235036;}.cls-2{fill:#69c399;}</style></defs><path class="cls-2" d="M0,100.69c0,.41,0,.82.01,1.23,0,.11,0,.21,0,.32.01.38.02.76.04,1.14,0,.03,0,.06,0,.09.02.4.04.8.07,1.2,0,.11.01.21.02.32.02.36.05.71.08,1.06,0,.05.01.11.01.16.04.39.07.78.12,1.17.01.11.02.21.04.32H.4c.04.33.08.66.12.98,0,.08.02.15.03.23.05.38.11.76.17,1.14.02.11.04.23.05.34.05.3.1.6.15.91.02.1.04.19.05.29.07.37.14.73.21,1.1.02.12.05.24.07.36.06.29.12.56.18.85l.08.33c.08.35.16.71.25,1.06.03.12.06.25.09.37.07.26.14.52.21.78.03.13.07.25.1.38.1.34.19.68.29,1.02.04.13.08.26.12.39.07.22.14.44.2.66.01.03.02.05.02.08,0,.02.01.04.02.05.04.12.07.24.11.35.11.33.22.66.33.98.05.13.09.26.14.39h0c.08.23.16.46.25.69.05.14.11.28.16.43,0,0,0,0,0,0,.12.32.24.64.36.95.05.13.1.26.15.39,0,0,0,0,0,0,.09.22.18.44.27.66.06.15.12.29.18.43.13.31.26.61.4.92.06.13.11.25.17.38.1.22.2.44.31.66.07.14.13.28.2.42.13.28.26.55.4.82.07.14.14.27.2.41.08.16.16.33.25.48l.1.19c.09.16.17.33.26.49.1.19.2.37.3.55.09.16.17.32.26.48.12.21.24.43.36.64.12.22.25.45.39.67.13.21.25.41.38.63.1.16.2.31.29.47.11.17.21.35.33.51.1.16.2.32.31.48.11.17.22.34.34.5.1.16.2.31.31.47.15.22.3.44.46.66.15.21.3.43.45.64.12.17.24.34.36.5.12.16.24.31.35.47.11.15.23.3.34.45.12.16.24.32.36.48.11.15.23.3.35.44.12.15.25.31.37.46.21.27.43.53.65.8.02.03.05.06.08.1.06.07.13.15.2.22.22.26.44.52.67.78.1.11.2.23.3.34.29.32.57.63.86.94.1.11.2.22.31.32.24.26.49.52.74.78.08.08.16.16.24.25.31.31.62.61.93.92.11.1.21.2.32.31.32.3.64.6.96.9.06.06.14.13.21.19.28.26.57.51.86.76.1.09.2.18.3.26.34.29.67.58,1.01.85.1.08.19.15.28.23.3.24.6.48.91.72.08.06.16.12.24.18.36.28.72.55,1.08.82.1.08.2.15.3.22.37.27.75.54,1.13.8.04.03.07.05.11.08.36.25.72.49,1.09.73.1.06.2.13.3.19.39.25.77.5,1.16.74.08.05.16.1.24.15.35.21.71.43,1.07.64.08.04.15.09.23.14.4.23.81.46,1.22.68.09.05.19.11.29.16.41.22.81.44,1.23.64.02.01.04.02.06.03.43.22.86.43,1.29.64.1.05.2.09.29.14.43.2.86.4,1.3.6.06.03.12.05.19.08.4.18.8.35,1.21.52.08.04.16.07.25.1.11.04.21.08.32.13.05.02.1.04.15.06.07.03.14.06.21.09.22.09.43.17.65.25.09.03.18.06.28.1.43.16.86.32,1.29.47.04.01.07.02.11.04.14.05.29.1.43.15.32.11.64.21.95.31.08.03.15.05.23.07.02,0,.05.01.07.03.17.05.34.1.51.16.3.09.59.18.89.26,0,0,0,0,0,0,.04.01.09.02.14.04.25.07.51.14.77.21.19.05.37.1.56.15.09.03.18.05.27.08.36.09.73.18,1.09.26.11.03.21.05.32.08.09.02.18.04.27.06.06.01.12.03.18.04.33.08.66.15.99.21.05.01.11.02.16.03l.17.04s.09.02.13.02c.44.09.88.17,1.32.25.09.01.17.03.26.04.02,0,.04,0,.05,0,.49.08.98.16,1.48.23.02,0,.05,0,.08.01.08.01.15.02.23.03.33.04.67.09,1,.13.07.01.14.02.2.02.1.01.21.02.31.04.06,0,.11.01.17.02.43.05.86.09,1.29.13h.01c.09,0,.18.01.26.02.43.04.86.06,1.29.09.02,0,.05,0,.07,0h.02c.07,0,.13.01.2.01h.02c.5.03,1,.05,1.5.06.11,0,.23,0,.34,0,.51.01,1.03.02,1.55.02s1.03,0,1.55-.02c.11,0,.22,0,.33,0,.5-.01,1-.04,1.5-.06.08,0,.16-.01.24-.01.46-.03.91-.06,1.36-.1.09,0,.18-.01.26-.02h.01c.49-.04.98-.09,1.46-.15.1-.01.21-.02.31-.04.48-.05.95-.11,1.43-.18.03,0,.06,0,.09-.01.49-.07.99-.15,1.48-.23.11-.01.21-.04.32-.05.49-.09.97-.18,1.45-.27l.17-.04c.44-.09.88-.18,1.32-.28,0,0,.01,0,.01,0,.09-.02.19-.04.27-.06.48-.11.95-.23,1.41-.34.09-.02.18-.05.28-.08.44-.11.88-.23,1.32-.36.05-.01.1-.02.14-.04.47-.14.93-.28,1.4-.42.1-.03.2-.06.3-.1.46-.15.93-.3,1.38-.46.04-.01.07-.03.11-.04.43-.15.86-.31,1.29-.47.09-.03.19-.06.28-.1.12-.05.25-.1.37-.15.05-.02.11-.04.16-.06.26-.1.53-.21.79-.31.09-.04.16-.07.25-.1.4-.17.8-.34,1.2-.51.06-.03.13-.05.19-.08.43-.19.86-.39,1.29-.59.1-.05.2-.09.29-.14.43-.21.86-.42,1.29-.64.02,0,.04-.02.06-.03.41-.21.82-.42,1.22-.64.1-.05.2-.11.29-.16.41-.22.81-.45,1.21-.68.08-.05.16-.09.24-.14.35-.21.71-.42,1.06-.63.08-.05.16-.1.24-.15.39-.24.78-.49,1.16-.74.1-.07.2-.13.3-.2.36-.24.73-.48,1.08-.73.04-.02.08-.05.12-.08.38-.26.75-.53,1.11-.8.1-.08.21-.15.31-.23.36-.26.72-.54,1.08-.81.08-.06.16-.12.24-.19.3-.24.6-.48.9-.72.09-.08.19-.15.28-.23.34-.28.68-.56,1.01-.85.1-.09.21-.18.31-.27.29-.25.58-.5.86-.76.07-.07.14-.13.21-.19.32-.3.64-.6.96-.9l.32-.31c.31-.3.62-.61.93-.92.08-.08.16-.16.25-.25.25-.25.5-.51.74-.77.1-.11.21-.22.31-.33.29-.31.58-.63.86-.94.1-.12.2-.23.3-.35.23-.26.45-.51.67-.77.06-.08.13-.15.19-.22.03-.03.05-.06.08-.1.22-.26.44-.53.65-.8.13-.15.25-.31.37-.46.12-.15.24-.29.35-.44.12-.16.24-.31.36-.48.11-.15.23-.3.34-.45.12-.16.24-.31.35-.47.12-.17.24-.34.36-.5.15-.21.3-.43.45-.64.15-.22.3-.44.46-.66.1-.15.2-.31.31-.47.11-.17.23-.34.34-.5.1-.16.2-.32.31-.48.11-.17.22-.34.32-.51.1-.16.2-.31.29-.47.13-.21.25-.42.37-.63.13-.22.26-.45.39-.67.12-.21.25-.43.36-.64.09-.16.18-.32.26-.48.1-.18.2-.36.3-.55.09-.16.18-.33.26-.49.03-.06.07-.13.1-.19.09-.16.17-.32.25-.48.07-.14.14-.27.21-.41.14-.27.27-.55.4-.82.06-.14.13-.28.2-.43.1-.22.2-.44.31-.66l.18-.4c.13-.3.26-.6.39-.9.06-.15.13-.29.18-.44.09-.22.18-.44.27-.66.05-.13.11-.26.16-.39.12-.31.24-.63.36-.95.05-.14.1-.29.16-.43.09-.23.16-.46.25-.68.05-.13.09-.27.14-.4.11-.32.22-.65.33-.98.05-.14.09-.28.13-.41.08-.24.15-.48.23-.72.04-.13.08-.26.12-.39.1-.34.2-.68.29-1.01h0c.04-.13.07-.26.1-.38.07-.26.14-.52.2-.78.04-.12.06-.25.1-.37.09-.35.17-.7.25-1.06.02-.11.05-.23.07-.34.06-.28.12-.56.18-.84.02-.12.05-.24.07-.36.07-.36.14-.73.21-1.09.02-.1.03-.2.05-.29.05-.3.1-.6.15-.9.02-.11.04-.23.05-.34.06-.38.12-.75.17-1.14.01-.08.02-.15.03-.23.04-.32.09-.65.12-.98h0c.01-.11.02-.22.04-.33.04-.39.08-.78.12-1.17,0-.05,0-.11.01-.16.03-.35.06-.7.08-1.06,0-.11.01-.21.02-.32.03-.4.05-.8.07-1.2,0-.03,0-.06,0-.09.02-.38.03-.76.04-1.14,0-.11,0-.21,0-.32,0-.41.01-.81.01-1.23v-25.28h0V0H0v100.69ZM116.22,4.34v33.44h0c-.09-.22-.18-.44-.27-.66-.06-.14-.12-.29-.18-.43-.13-.31-.26-.61-.4-.92-.06-.13-.11-.25-.17-.38-.1-.22-.2-.44-.31-.66-.06-.14-.13-.28-.2-.42-.13-.28-.26-.55-.4-.82-.07-.14-.14-.27-.21-.41-.08-.16-.16-.32-.25-.48l-.1-.19c-.09-.16-.17-.33-.26-.49-.1-.19-.2-.37-.3-.55-.09-.16-.17-.32-.26-.48-.12-.21-.24-.42-.36-.64-.13-.23-.26-.45-.39-.67-.13-.21-.25-.42-.37-.63-.1-.16-.2-.32-.29-.47-.11-.18-.21-.35-.33-.52-.1-.16-.2-.32-.31-.48-.11-.17-.22-.34-.33-.51-.1-.15-.21-.31-.31-.46-.15-.22-.3-.44-.46-.66-.15-.21-.3-.43-.45-.64-.12-.17-.24-.34-.36-.5-.12-.16-.24-.31-.35-.48-.11-.15-.23-.3-.34-.45-.12-.16-.24-.31-.36-.47-.11-.15-.23-.3-.35-.45-.12-.15-.24-.31-.37-.46-.21-.27-.43-.53-.65-.8-.03-.03-.05-.06-.08-.1-.06-.08-.13-.15-.19-.22-.22-.26-.45-.52-.67-.78-.1-.11-.2-.23-.3-.34-.29-.32-.57-.63-.86-.94-.1-.11-.2-.22-.31-.32-.24-.26-.49-.52-.74-.78-.08-.08-.16-.17-.24-.25-.31-.31-.61-.61-.93-.92-.11-.1-.21-.21-.32-.31-.32-.3-.64-.61-.96-.9-.06-.06-.14-.12-.21-.19-.28-.26-.57-.51-.86-.76-.1-.09-.2-.17-.3-.26-.34-.29-.67-.57-1.01-.85-.09-.08-.19-.15-.28-.23-.3-.24-.6-.49-.91-.72-.08-.06-.16-.12-.24-.19-.36-.28-.72-.55-1.08-.81-.1-.08-.2-.15-.3-.22-.37-.27-.75-.54-1.13-.8-.04-.02-.07-.05-.11-.08-.36-.25-.72-.49-1.09-.73-.1-.06-.2-.13-.29-.2-.39-.25-.78-.5-1.16-.74-.08-.05-.16-.1-.24-.15-.35-.22-.71-.43-1.07-.64-.07-.05-.15-.09-.23-.14-.4-.23-.81-.46-1.21-.69-.1-.05-.19-.1-.29-.15-.41-.22-.81-.44-1.23-.65-.02-.01-.04-.02-.06-.03-.43-.22-.85-.43-1.29-.63-.1-.05-.19-.1-.29-.14-.43-.2-.86-.4-1.3-.6-.06-.03-.13-.05-.19-.08-.4-.18-.8-.35-1.21-.51-.08-.04-.16-.07-.25-.1-.1-.04-.21-.09-.32-.13h33.45ZM4.34,4.34h33.44c-.11.04-.21.08-.32.13-.08.04-.16.07-.25.1-.4.17-.8.34-1.2.51-.06.03-.13.05-.19.08-.43.19-.86.39-1.29.59-.1.05-.2.09-.29.14-.43.21-.86.41-1.29.63-.02.01-.04.02-.06.04-.41.21-.81.42-1.22.64-.1.05-.2.11-.29.16-.41.23-.81.45-1.21.69-.08.05-.16.09-.24.14-.35.21-.71.42-1.06.63-.08.05-.16.1-.24.15-.39.24-.78.49-1.16.74-.1.06-.2.13-.3.2-.36.24-.72.48-1.08.73-.04.03-.08.05-.12.08-.38.26-.75.53-1.11.8-.1.08-.21.15-.31.23-.36.26-.73.54-1.08.81-.08.06-.16.13-.24.19-.3.24-.6.48-.9.72-.1.08-.19.15-.29.23-.34.28-.68.56-1.01.85-.1.09-.2.17-.31.26-.29.25-.58.5-.86.76-.07.06-.14.13-.21.19-.32.3-.64.6-.96.9l-.33.31c-.31.3-.62.61-.93.92-.08.08-.16.16-.24.25-.25.26-.5.51-.74.77-.1.11-.21.22-.31.33-.29.31-.58.62-.86.94-.1.11-.2.23-.3.35-.23.26-.45.51-.67.77-.06.08-.13.15-.19.23-.03.03-.05.06-.08.1-.22.26-.44.53-.65.8-.13.15-.25.31-.37.46-.12.15-.23.3-.35.45-.12.16-.24.31-.36.47-.11.15-.22.3-.34.45-.12.16-.24.31-.35.48-.12.17-.24.34-.36.5-.15.21-.3.42-.45.64-.15.22-.3.44-.45.66-.1.15-.21.31-.31.46-.11.17-.23.34-.33.51-.1.16-.21.32-.31.48-.11.17-.21.34-.32.52-.1.15-.2.31-.29.47-.13.21-.25.42-.38.63-.13.22-.26.44-.39.67-.12.21-.25.42-.36.64-.09.16-.18.32-.26.48-.1.18-.2.36-.3.55-.09.16-.18.33-.26.49-.03.06-.06.13-.1.19-.09.16-.17.32-.25.48-.07.14-.14.28-.21.41-.14.27-.27.54-.4.82-.06.14-.13.28-.2.43-.1.22-.2.44-.31.66l-.18.4c-.13.3-.26.6-.39.9-.06.14-.13.29-.18.43-.09.22-.18.44-.27.66V4.34ZM4.34,60.14c0-.46,0-.91.02-1.36,0-.17.01-.34.02-.51,0-.33.03-.65.04-.98,0-.2.02-.41.03-.61.02-.29.04-.58.06-.86.04-.48.08-.96.13-1.43.01-.13.03-.26.04-.4.04-.35.08-.7.13-1.05.01-.08.02-.15.03-.23.55-4.06,1.54-8.04,2.98-11.89.1-.28.2-.55.31-.82.06-.15.12-.31.19-.47.09-.23.18-.46.28-.69.14-.33.28-.66.42-.99.04-.09.08-.19.12-.28.21-.48.44-.96.67-1.44.01-.03.02-.05.03-.07.24-.49.48-.97.73-1.45,0,0,0-.01,0-.01.14-.27.29-.54.43-.81.01-.01.02-.04.03-.05.58-1.08,1.2-2.13,1.84-3.16.02-.04.05-.08.07-.11.14-.23.29-.45.43-.68.05-.07.09-.14.14-.21.14-.21.28-.42.42-.63.05-.08.1-.15.16-.23.21-.31.43-.61.64-.92.12-.17.24-.34.36-.51.09-.12.18-.23.26-.35.14-.19.29-.39.44-.58.07-.09.14-.18.21-.28.2-.26.4-.51.6-.77.02-.03.04-.05.06-.08.25-.31.5-.61.75-.91,0,0,.01-.01.02-.02.32-.38.65-.75.98-1.13.01-.01.03-.03.04-.05.32-.36.64-.71.97-1.06.04-.04.08-.09.13-.14.32-.35.65-.69.99-1.03.01-.01.02-.02.04-.04.31-.31.63-.63.95-.93l.19-.18c.31-.3.63-.59.95-.88.08-.08.17-.15.26-.23.29-.26.57-.51.86-.76.07-.06.15-.13.22-.18.3-.26.6-.51.9-.75.11-.09.22-.18.33-.27.31-.25.63-.5.95-.75.1-.08.2-.15.3-.23.27-.2.55-.41.83-.61.09-.06.17-.13.27-.2.34-.25.69-.49,1.04-.73.09-.06.18-.12.26-.18.78-.53,1.57-1.03,2.37-1.52.02-.01.05-.03.07-.04,5.17-3.13,10.81-5.39,16.73-6.72.02,0,.05-.01.07-.01.95-.21,1.9-.39,2.86-.55.06-.01.13-.02.19-.03.47-.08.94-.15,1.41-.21h.04c.45-.07.9-.12,1.34-.17.08-.01.16-.02.24-.03.45-.05.9-.1,1.35-.13.08,0,.16-.01.24-.02.41-.03.83-.06,1.24-.09.07,0,.14,0,.2-.01.45-.02.9-.04,1.35-.05.1,0,.2,0,.3,0,.46-.01.91-.02,1.38-.02h.01c.46,0,.92,0,1.38.02.1,0,.2,0,.3,0,.45.01.9.03,1.35.05.07,0,.13.01.2.01.42.02.83.05,1.25.09.07,0,.15.01.23.02.45.04.91.08,1.36.13.08,0,.15.01.22.02.46.05.92.11,1.38.18h.01c.48.06.96.14,1.43.22.05,0,.1.01.16.03.97.16,1.94.35,2.9.56,0,0,.01,0,.03,0,5.93,1.32,11.59,3.6,16.76,6.73h.02c.82.51,1.63,1.03,2.42,1.57l.21.14c.36.25.73.5,1.08.76.07.05.14.1.2.15.31.23.61.45.92.68.08.06.16.12.23.18.34.26.67.52,1,.79.09.08.18.15.28.23.34.28.67.55,1,.84.03.02.06.05.09.07.33.28.64.56.96.84.07.06.14.12.2.18.34.3.66.61.99.92.05.04.09.09.14.13.7.66,1.38,1.35,2.04,2.05.03.03.06.06.09.09.34.36.68.73,1,1.1.34.39.68.78,1.01,1.17.5.6.99,1.21,1.47,1.83.04.04.07.09.1.13.2.26.4.52.59.78.04.06.08.11.12.16.44.6.86,1.2,1.28,1.81.07.1.15.21.22.32.13.19.25.37.37.57.09.13.17.27.26.4.11.17.21.34.31.5.09.14.18.29.26.43.12.19.23.38.34.58.14.24.28.48.42.72.09.16.19.32.28.48s.18.32.26.48c.09.16.18.32.26.49.08.15.16.3.24.45.06.11.12.23.18.34.18.35.36.71.53,1.07.06.14.13.27.2.4.17.37.35.74.51,1.11.15.32.29.65.43.98.05.11.09.22.14.33.3.71.58,1.43.85,2.15,1.44,3.89,2.44,7.9,2.99,12.01h0c.05.41.1.81.15,1.22,0,.04,0,.07.01.11.06.61.12,1.21.16,1.83.02.23.04.46.05.69.01.23.03.45.04.67.02.31.03.62.04.93,0,.18.01.36.02.54.01.49.02.98.02,1.48v40.42c0,.5,0,1.01-.02,1.5,0,.17,0,.34-.01.51-.01.33-.03.65-.05.98,0,.21-.02.41-.03.62-.02.29-.04.58-.06.86-.04.48-.08.95-.13,1.43-.01.14-.03.27-.04.4-.04.35-.08.7-.13,1.06-.01.07-.02.15-.03.23-.55,4.06-1.54,8.04-2.97,11.89-.1.28-.21.54-.31.81-.06.16-.12.31-.18.47-.09.23-.19.46-.28.69-.14.33-.28.66-.42.99-.04.09-.08.19-.13.28-.21.49-.44.97-.67,1.45-.01.02-.02.04-.03.06-.24.49-.48.98-.73,1.46,0,0,0,.01,0,.01-.14.27-.28.54-.43.8,0,.02-.02.04-.03.05-.58,1.08-1.2,2.13-1.84,3.16-.03.04-.05.08-.07.11-.15.23-.29.45-.44.68-.05.07-.09.14-.14.21-.14.21-.27.42-.41.63-.05.08-.11.15-.16.23-.21.31-.43.61-.64.92-.12.17-.24.34-.36.51-.09.12-.18.24-.26.35-.14.19-.29.39-.44.58-.07.09-.14.19-.21.28-.2.26-.4.52-.6.77-.02.03-.04.06-.06.08-.25.3-.5.61-.75.91,0,0-.01.01-.02.02-.32.38-.65.75-.98,1.13-.01.01-.03.03-.04.05-.32.36-.64.71-.97,1.06-.04.04-.08.09-.13.13-.33.35-.66.69-.99,1.03-.01.01-.02.02-.04.04-.31.32-.63.63-.95.94l-.19.18c-.31.3-.63.59-.95.89-.08.08-.17.15-.26.23-.29.26-.57.51-.86.76-.07.06-.15.12-.22.19-.3.25-.6.51-.9.75-.11.09-.22.18-.33.26-.31.26-.63.5-.95.75-.1.08-.2.15-.3.23-.27.21-.55.41-.83.62-.09.06-.17.13-.27.19-.34.25-.69.49-1.04.73-.09.06-.18.12-.26.18-.78.53-1.57,1.04-2.37,1.52-.03.01-.05.03-.07.04-5.16,3.13-10.81,5.39-16.73,6.71-.02,0-.04.01-.07.02-.95.21-1.9.39-2.86.55-.06.01-.13.02-.19.03-.47.08-.94.15-1.41.21h-.04c-.45.07-.9.13-1.34.18-.08,0-.16.02-.24.03-.45.05-.9.09-1.35.13-.08,0-.16.01-.24.02-.41.03-.83.06-1.24.09-.07,0-.14,0-.2.01-.45.03-.9.04-1.35.06-.1,0-.2,0-.31,0-.46.01-.91.02-1.37.02h-.01c-.46,0-.92,0-1.38-.02-.1,0-.2,0-.3,0-.45-.01-.9-.03-1.35-.06-.06,0-.13,0-.2-.01-.42-.02-.83-.05-1.25-.09-.07,0-.15-.01-.23-.02-.45-.04-.91-.08-1.36-.13-.07,0-.15-.02-.22-.03-.46-.05-.92-.11-1.38-.17h-.01c-.48-.07-.96-.14-1.43-.22-.05,0-.1-.02-.15-.02-.97-.16-1.94-.35-2.9-.56-.01,0-.02,0-.03,0-5.93-1.32-11.59-3.6-16.76-6.73,0,0-.01,0-.02-.01-.82-.5-1.63-1.02-2.42-1.56-.07-.05-.14-.09-.21-.14-.36-.25-.73-.5-1.09-.76-.07-.05-.13-.1-.2-.15-.31-.23-.61-.45-.92-.68-.08-.06-.16-.12-.24-.18-.34-.26-.67-.52-1-.78-.1-.08-.19-.15-.28-.23-.34-.28-.67-.55-1-.84-.03-.02-.06-.05-.09-.07-.32-.28-.64-.56-.96-.84-.07-.06-.14-.13-.2-.18-.34-.31-.66-.61-.99-.92-.04-.04-.09-.09-.14-.13-.7-.66-1.38-1.35-2.04-2.05-.03-.03-.06-.06-.09-.09-.34-.36-.67-.73-1-1.1-.34-.39-.68-.78-1.01-1.18-.5-.6-.99-1.2-1.47-1.82-.04-.05-.07-.09-.1-.13-.2-.26-.4-.52-.59-.78-.04-.05-.08-.11-.12-.16-.44-.6-.86-1.2-1.28-1.81-.07-.11-.15-.21-.22-.32-.12-.19-.25-.37-.37-.57-.09-.14-.17-.27-.26-.4-.1-.17-.21-.34-.31-.5-.09-.14-.18-.29-.26-.43-.12-.19-.23-.38-.34-.57-.14-.24-.28-.48-.42-.72-.09-.16-.19-.32-.28-.48-.09-.16-.17-.31-.26-.48-.09-.16-.18-.32-.26-.49-.08-.15-.16-.3-.24-.46-.06-.11-.12-.23-.18-.34-.18-.36-.36-.71-.53-1.07-.06-.13-.13-.26-.2-.4-.18-.36-.35-.74-.51-1.11-.15-.33-.29-.65-.43-.98-.05-.11-.1-.22-.14-.33-.3-.71-.59-1.43-.85-2.15-1.44-3.89-2.44-7.9-2.99-12.01h0c-.05-.41-.1-.81-.15-1.22,0-.04-.01-.08-.01-.11-.06-.6-.12-1.21-.16-1.82-.02-.23-.04-.46-.05-.69-.01-.22-.02-.45-.04-.67-.02-.31-.03-.62-.04-.93,0-.18-.01-.36-.02-.54-.01-.49-.02-.99-.02-1.48v-40.56Z"/><path class="cls-2" d="M100.93,103.42c-13.08,0-25,4.99-33.98,13.18-1.08.98-2.11,2.01-3.1,3.08-1.27,1.38-2.46,2.82-3.58,4.33-.91,1.24-1.77,2.52-2.57,3.84-3.3,5.45-5.6,11.57-6.64,18.1-.23,1.42-.4,2.87-.5,4.33.57.11,1.14.21,1.71.3.05,0,.1.02.15.03.31.05.61.09.92.13.08.01.16.02.24.03.3.04.59.08.89.11.09.01.18.02.27.03.05,0,.09.01.13.01.25.03.5.05.76.08.09,0,.18.02.26.03.3.02.6.05.91.07.07,0,.15.01.22.01.32.02.64.04.96.05h.07c.74.03,1.48.05,2.22.05s1.48-.02,2.21-.05h.07c.33-.01.65-.04.97-.05.07,0,.14-.01.2-.01.31-.02.62-.04.93-.07.08,0,.16-.02.24-.03.26-.02.52-.05.78-.08.05,0,.1-.01.14-.01.07-.01.15-.02.22-.03.31-.04.63-.07.94-.11.05,0,.11-.02.16-.03.33-.04.67-.09,1-.14,0,0,0,0,.01,0,.61-.09,1.22-.2,1.83-.32-.1-1.46-.27-2.9-.5-4.33-1.04-6.53-3.34-12.65-6.63-18.1,1.1-1.6,2.29-3.12,3.58-4.57,1.83,2.8,3.41,5.76,4.73,8.87,1.69,4,2.9,8.14,3.62,12.39.24,1.45.43,2.91.56,4.38.13-.04.25-.08.38-.12.05-.01.09-.03.14-.05.32-.1.64-.21.95-.32.04-.01.07-.03.11-.04.33-.11.66-.23.98-.35h0s0,0,0,0c.55-.2,1.09-.41,1.64-.64.14-.06.27-.11.4-.17,2.48-1.05,4.84-2.28,7.1-3.69h0s.06-.03.09-.05c.27-.17.54-.34.8-.51.06-.04.13-.08.19-.13.26-.18.53-.35.79-.54.07-.05.14-.09.21-.14.25-.17.49-.34.73-.52.1-.07.19-.14.29-.21.2-.15.41-.3.6-.45.06-.05.13-.1.2-.15.05-.04.1-.08.15-.12.38-.29.76-.59,1.13-.9.01,0,.03-.02.04-.03.43-.35.84-.71,1.26-1.07.01-.01.03-.02.04-.04.4-.35.8-.71,1.19-1.08.02-.02.04-.04.05-.05.4-.38.8-.76,1.2-1.15,4.64-4.64,8.28-10.04,10.82-16.05.19-.44.37-.89.54-1.34.04-.1.08-.2.12-.3.13-.34.26-.68.38-1.02.05-.14.1-.28.15-.42.11-.31.21-.63.32-.94.05-.14.09-.29.14-.43.11-.34.21-.68.31-1.03.03-.11.07-.22.1-.33.26-.92.5-1.85.71-2.78.02-.1.04-.19.06-.29.08-.38.16-.76.24-1.14.02-.1.04-.2.05-.29.08-.42.15-.84.22-1.25,0-.03.01-.06.01-.09,0,0,0,0,0-.01,0-.02,0-.04,0-.06.04-.26.08-.52.12-.79.03-.17.05-.34.07-.51.02-.19.05-.39.07-.58.03-.23.05-.45.08-.67.02-.18.04-.35.05-.52.02-.21.04-.42.05-.62.01-.2.03-.39.05-.58-1.41-.28-2.85-.5-4.31-.65-1.78-.19-3.58-.29-5.41-.29ZM65.19,146.59c-.12.01-.24.02-.36.04-.1.01-.19.02-.29.03-.28.03-.57.05-.85.07-.09,0-.18.01-.26.02-.3.02-.6.04-.9.05-.05,0-.1,0-.15,0-.7.03-1.4.05-2.1.05s-1.41-.02-2.11-.05c-.05,0-.1,0-.15,0-.3-.01-.6-.03-.91-.05-.08,0-.17-.01-.25-.02-.29-.02-.57-.05-.86-.07-.09-.01-.19-.02-.28-.03-.12-.01-.24-.02-.35-.04.83-5.18,2.51-10.08,4.92-14.53,2.4,4.45,4.09,9.35,4.92,14.53ZM94.42,131.76s0,0,0,0h0s-.05.06-.08.09c-.07.08-.14.15-.21.23-.63.68-1.27,1.33-1.93,1.96-.03.03-.06.06-.1.09-.21.2-.43.4-.65.6-.05.04-.09.09-.14.13-.22.2-.44.39-.66.59-.04.04-.09.08-.14.12-.23.2-.46.4-.7.59-.04.03-.07.06-.1.09-.25.2-.5.41-.75.61-.08.06-.15.12-.23.18-.22.17-.44.34-.66.51-.1.07-.2.15-.3.22-.21.15-.42.31-.63.46-.11.08-.23.16-.34.24-.2.14-.41.28-.61.42-1.59,1.08-3.24,2.06-4.96,2.93-.77.39-1.55.76-2.34,1.11-1.53-8.34-4.78-16.08-9.37-22.84,8.24-7.66,19.28-12.35,31.42-12.35,1.66,0,3.31.09,4.93.26-1.44,9.06-5.53,17.25-11.44,23.74Z"/><path class="cls-2" d="M19.63,97.99c7.55,0,14.87,1.48,21.76,4.39,5.82,2.46,11.12,5.85,15.79,10.09-1.25,1.32-2.45,2.7-3.58,4.13-8.98-8.19-20.91-13.18-33.98-13.18-1.83,0-3.64.1-5.41.29-1.46.15-2.89.37-4.3.65.01.22.03.44.05.66.01.16.03.33.04.49.02.2.04.39.06.59.02.21.04.43.07.64.02.19.05.37.07.56.02.19.05.38.08.57.04.24.07.48.11.71,0,.04.01.07.01.1h0s.01.09.02.13c.06.4.14.8.21,1.2.02.11.04.22.06.33.07.36.15.73.22,1.1.02.11.05.22.07.33.1.44.2.87.31,1.31,0,.03.01.05.02.08.12.46.24.91.37,1.37.04.13.08.26.12.39.09.32.19.64.29.96.05.16.1.32.16.49.09.29.2.59.3.88.05.16.11.31.16.48.11.32.24.64.36.95.04.12.09.24.14.36.18.44.35.89.54,1.33,2.51,5.93,6.09,11.27,10.64,15.87.06.06.12.12.18.18h0c.36.36.72.71,1.09,1.06.1.09.2.18.3.28.3.28.6.55.91.83.08.07.15.14.23.2.39.34.79.68,1.18,1,.03.02.06.04.08.06.37.3.75.6,1.12.89.04.03.08.06.12.1.06.04.11.08.17.13.22.17.44.33.66.49.09.06.17.12.25.18.24.18.49.35.74.52.07.05.15.11.23.16.25.17.49.34.75.5.09.06.18.12.27.18.23.15.46.3.69.44.05.03.09.06.14.09h0c2.26,1.41,4.64,2.66,7.13,3.71.14.06.26.11.4.17.53.21,1.05.42,1.59.62,0,0,.02,0,.03,0,0,0,0,0,0,0,.31.12.64.23.95.35.05.02.11.04.16.05.3.11.6.2.9.3.07.02.14.05.21.07.12.04.24.08.36.11.13-1.47.32-2.93.56-4.38.71-4.25,1.93-8.39,3.61-12.39,1.31-3.11,2.9-6.08,4.73-8.87.81-1.23,1.66-2.43,2.57-3.59,1.11-1.44,2.31-2.83,3.58-4.17.36-.39.73-.77,1.11-1.14.65-.65,1.31-1.28,1.99-1.9,4.67-4.24,9.97-7.63,15.79-10.09,6.89-2.92,14.22-4.39,21.77-4.39,1.85,0,3.69.09,5.51.26,1.46.14,2.9.34,4.34.6v-38.57c0-1.18-.04-2.36-.12-3.53,0,0,0-.02,0-.03-.01-.13-.02-.26-.03-.39-.01-.13-.02-.26-.03-.39-.01-.16-.03-.33-.04-.49-.02-.2-.04-.39-.06-.59-.02-.21-.04-.42-.07-.64-.02-.19-.04-.37-.07-.56,0-.05-.01-.1-.02-.16-.02-.14-.04-.27-.06-.41-.04-.24-.07-.48-.11-.71,0-.03,0-.06-.01-.1,0-.04-.01-.09-.02-.13-.06-.4-.13-.8-.21-1.2-.02-.11-.04-.22-.06-.33-.07-.37-.15-.73-.23-1.1-.02-.11-.05-.22-.07-.33h0c-.1-.44-.2-.88-.31-1.31,0-.03-.01-.05-.02-.08-.12-.45-.24-.91-.37-1.36-.04-.13-.08-.26-.12-.39-.09-.32-.19-.64-.29-.96-.05-.16-.1-.32-.16-.48-.06-.18-.11-.35-.17-.53-.04-.12-.08-.23-.12-.35-.05-.16-.11-.32-.16-.48-.11-.32-.24-.64-.35-.95-.05-.12-.09-.25-.14-.36-.18-.44-.35-.89-.54-1.33-.08-.19-.16-.39-.25-.58-.07-.18-.15-.36-.24-.53-.1-.23-.21-.46-.32-.69-.06-.13-.12-.26-.19-.4-.19-.4-.39-.8-.59-1.2-.07-.14-.14-.28-.21-.41-.21-.4-.42-.79-.64-1.18-.07-.13-.15-.26-.23-.39-.31-.56-.64-1.11-.98-1.65-.08-.14-.17-.27-.25-.4-.11-.17-.21-.34-.33-.5-.11-.17-.22-.34-.33-.5-.78-1.16-1.6-2.29-2.48-3.38-.13-.16-.25-.31-.38-.47-.12-.15-.24-.29-.36-.44-.13-.16-.27-.32-.41-.48-.13-.15-.26-.31-.4-.46-.66-.75-1.35-1.49-2.06-2.21-.06-.06-.12-.13-.18-.18h0c-.36-.36-.73-.71-1.09-1.06-.1-.09-.19-.18-.29-.27-.3-.28-.61-.56-.91-.83-.07-.07-.15-.14-.23-.21-.39-.34-.79-.68-1.19-1-.03-.02-.05-.04-.08-.06-.37-.3-.75-.6-1.13-.89-.04-.03-.08-.06-.12-.1-.06-.04-.11-.08-.17-.13-.22-.16-.44-.33-.66-.49-.08-.06-.17-.12-.25-.18-.25-.18-.49-.35-.74-.53-.07-.05-.15-.1-.23-.16-.2-.14-.39-.27-.59-.4-.05-.03-.1-.06-.15-.1-.09-.06-.18-.12-.28-.18-.14-.09-.28-.18-.42-.27-.09-.06-.18-.11-.27-.17-.05-.03-.09-.06-.14-.09-.3-.19-.61-.38-.92-.56-.55-.33-1.11-.65-1.68-.96-.26-.14-.52-.28-.78-.42h0c-1.22-.64-2.47-1.23-3.75-1.77-.36-.15-.71-.3-1.08-.44-.3-.12-.61-.24-.91-.35,0,0-.02,0-.03-.01h0c-.31-.12-.64-.23-.95-.35-.05-.02-.11-.04-.16-.05-.3-.11-.6-.21-.9-.3-.07-.03-.14-.05-.21-.07-.29-.09-.59-.19-.88-.28-.01,0-.03,0-.05-.01-.06-.01-.11-.03-.18-.05-.3-.09-.6-.18-.9-.26-.06-.01-.11-.03-.17-.04-1.73-.47-3.48-.85-5.24-1.13-.05,0-.1-.02-.15-.03-.31-.05-.61-.09-.92-.14-.08,0-.16-.02-.24-.03-.3-.04-.6-.08-.89-.11-.09-.01-.18-.02-.28-.03-.29-.04-.59-.06-.89-.09-.09-.01-.17-.02-.26-.03-.3-.03-.6-.05-.91-.07-.07,0-.15-.01-.22-.01-.32-.02-.64-.04-.96-.05-.02,0-.05,0-.07,0-.74-.03-1.48-.05-2.21-.05s-1.48.02-2.21.05c-.02,0-.05,0-.07,0-.33.01-.65.03-.97.05-.07,0-.14,0-.2.01-.31.02-.62.04-.93.07-.08,0-.16.01-.24.02-.31.03-.61.06-.92.09-.07,0-.15.01-.22.02-.31.04-.63.07-.94.11-.05,0-.11.01-.16.02-.33.05-.66.1-1,.15h-.01c-1.83.29-3.65.68-5.43,1.16-.01,0-.03,0-.04.01-.33.09-.66.19-.99.29-.03,0-.07.02-.1.03,0,0-.01,0-.02,0-.32.09-.64.19-.96.3-.05.01-.09.03-.14.05-.32.1-.64.21-.96.32-.04.01-.07.02-.11.04-.33.11-.65.23-.98.35,0,0,0,0-.01,0-.31.12-.62.24-.93.36-.37.15-.74.29-1.1.45-1.27.54-2.51,1.12-3.72,1.76-.05.02-.11.05-.16.08-.23.13-.47.25-.7.38-.29.16-.57.31-.85.47-.56.32-1.12.65-1.67,1h0s-.06.03-.09.05c-.11.07-.22.14-.33.21-.16.1-.32.2-.47.31-.06.04-.13.08-.19.13-.21.14-.42.28-.62.42-.06.04-.11.08-.17.11-.04.03-.07.05-.1.07-.04.03-.07.05-.1.07-.24.18-.49.35-.73.52-.1.07-.19.14-.29.21-.2.14-.4.3-.6.45-.06.05-.13.1-.2.15-.05.04-.1.08-.15.12-.38.29-.76.59-1.14.9-.01.01-.03.02-.04.03-.43.35-.84.71-1.26,1.07-.01.01-.03.03-.04.04-.4.35-.8.71-1.19,1.08l-.05.05c-.41.38-.81.76-1.2,1.15-.98.98-1.92,2-2.81,3.05-.13.15-.25.3-.38.45-.59.7-1.15,1.43-1.69,2.16-.09.12-.18.24-.27.37-.12.16-.24.33-.35.49-.11.16-.22.31-.33.47-.01.02-.03.04-.04.06-.1.16-.21.31-.32.47-.11.17-.23.34-.34.5-.11.17-.22.34-.33.51l-.33.53c-.1.17-.2.34-.31.5-.11.17-.21.34-.31.52-.1.18-.2.35-.31.53-.61,1.06-1.18,2.15-1.71,3.26-.17.35-.34.71-.5,1.07-.08.18-.16.36-.24.54-.08.2-.17.39-.25.59-.19.44-.37.89-.54,1.34-.04.1-.08.2-.12.31-.13.34-.26.68-.38,1.02-.05.14-.1.28-.15.42-.04.13-.09.25-.13.38-.06.19-.13.38-.19.56-.05.14-.1.29-.14.43-.11.34-.21.68-.31,1.02-.03.11-.06.22-.1.33-.26.91-.49,1.83-.7,2.76,0,0,0,.01,0,.02-.02.1-.04.19-.06.29-.08.38-.16.76-.24,1.14-.02.1-.04.2-.05.29-.08.41-.15.84-.22,1.25,0,.03-.01.06-.01.09,0,.03,0,.05-.01.07-.04.26-.08.52-.12.78-.02.13-.03.25-.05.37,0,.05-.01.1-.02.14-.03.19-.05.38-.08.58-.03.22-.05.45-.07.67-.02.17-.04.35-.05.52-.02.21-.04.41-.05.62-.02.21-.04.43-.05.64,0,.02,0,.05,0,.07-.04.59-.07,1.18-.09,1.76-.02.59-.03,1.18-.03,1.78v38.57c1.44-.25,2.88-.45,4.34-.6,1.82-.18,3.66-.26,5.51-.26ZM41.66,142.94c-.8-.35-1.6-.73-2.38-1.13-1.7-.87-3.34-1.84-4.92-2.91-.23-.15-.45-.31-.67-.46-.09-.07-.19-.14-.28-.2-.23-.16-.45-.32-.67-.49-.09-.07-.18-.14-.28-.21-.21-.16-.43-.32-.64-.49-.1-.08-.2-.15-.29-.23-.2-.16-.39-.32-.59-.48-.12-.1-.24-.2-.36-.3-.15-.13-.3-.25-.45-.39-.14-.12-.27-.24-.41-.35-.14-.13-.28-.25-.42-.37-.14-.13-.29-.27-.43-.4-.13-.11-.25-.23-.37-.35-.17-.16-.33-.31-.49-.47-.1-.1-.2-.2-.31-.3-.26-.26-.51-.51-.76-.78,0,0,0-.01-.01-.01-.26-.27-.52-.55-.77-.83-.01-.01-.02-.02-.03-.04,0,0,0,0,0,0-.11-.12-.22-.25-.33-.37-.11-.12-.21-.24-.32-.36-.13-.15-.25-.3-.38-.44-.1-.12-.2-.23-.3-.35-.13-.15-.25-.31-.38-.47-.09-.11-.19-.23-.28-.34-.14-.17-.27-.34-.4-.51-.08-.1-.16-.2-.24-.31-.14-.19-.28-.38-.42-.56-.07-.09-.14-.18-.2-.27-.15-.21-.3-.42-.45-.63-.05-.07-.11-.15-.16-.22-.16-.24-.33-.48-.49-.73-.03-.05-.06-.09-.1-.14-.19-.28-.37-.56-.55-.85,0-.01-.01-.02-.02-.03-3.21-5.13-5.45-10.93-6.44-17.15,1.62-.17,3.26-.26,4.93-.26,12.13,0,23.17,4.68,31.41,12.34-4.59,6.76-7.84,14.5-9.37,22.84ZM53.22,103.87c-7.08-4.77-15.23-8.07-24.01-9.47l24.01-24v33.47ZM33.03,84.44c.73-5.63,3.28-10.93,7.44-15.08,3.41-3.41,7.66-5.8,12.32-6.92h2.24l-22,21.99ZM23.86,58.11c4.49-3.46,10.05-5.4,15.92-5.4,4.82,0,9.51,1.32,13.6,3.82l1.59,1.59h-31.11ZM36.11,33.04c5.69.73,10.95,3.3,15.07,7.43,3.41,3.41,5.79,7.66,6.92,12.32v2.24l-21.99-21.99ZM62.99,107.08c-.93.75-1.83,1.54-2.71,2.34-.88-.8-1.79-1.59-2.72-2.34v-44.09l2.72-2.71,2.71,2.71v44.09ZM62.46,55.03v-2.24c1.12-4.65,3.51-8.91,6.92-12.32,4.12-4.12,9.38-6.7,15.07-7.43l-21.99,21.99ZM67.17,56.52c4.08-2.5,8.78-3.82,13.6-3.82,5.87,0,11.43,1.94,15.92,5.4h-31.11l1.59-1.59ZM67.77,62.45c4.65,1.12,8.91,3.5,12.32,6.92,4.15,4.15,6.71,9.45,7.43,15.08l-21.99-21.99h2.24ZM78.7,97.88c-4.02,1.59-7.83,3.61-11.37,5.99v-33.47l24,24c-4.39.7-8.62,1.88-12.64,3.48ZM106.44,93.89c-1.81-.16-3.65-.25-5.51-.25-3.26,0-6.46.26-9.59.76,2.17-9.81-.56-20.48-8.19-28.11-1.46-1.46-3.03-2.74-4.69-3.85h27.98v31.44ZM94.75,29.58c.11.12.21.24.32.36.13.15.25.29.38.44.1.12.2.23.3.35.13.15.26.31.38.47.09.11.19.23.28.34.14.17.27.34.4.51.08.1.16.21.24.31.14.19.28.37.42.56.07.09.14.18.2.27.15.21.3.42.45.63.05.08.11.15.16.22.16.24.33.48.49.72.03.05.06.1.1.14.19.28.37.56.55.85,0,.01.01.02.02.03.29.46.58.93.85,1.41.11.19.22.37.32.56.11.2.22.4.33.6.04.06.07.12.1.19.1.19.2.37.3.56.12.23.23.45.35.68.08.16.16.32.24.49.15.3.29.6.43.9.23.5.44,1,.65,1.51.14.34.28.68.41,1.02.06.17.13.34.2.51.13.34.25.69.37,1.04h0c.58,1.67,1.05,3.38,1.44,5.13.06.28.12.56.17.84.05.24.1.49.14.73.01.09.03.18.05.27.04.18.06.37.09.55.06.34.11.67.15,1,.03.18.05.35.08.53.01.12.03.25.04.37,0,.05.01.11.02.16.01.1.02.2.03.3.03.25.06.51.08.76.01.16.02.31.04.47.01.21.04.43.05.64,0,.11.01.23.02.34.01.27.03.54.04.81.03.7.05,1.4.05,2.11v2.16c-5.4-8.47-14.88-14.08-25.67-14.08-2.1,0-4.15.21-6.13.62l19.78-19.78c.11.12.22.25.33.37ZM26.22,29.12c.07-.08.14-.15.21-.23.63-.68,1.27-1.33,1.93-1.96.03-.03.06-.06.1-.09.21-.2.43-.4.65-.6.05-.04.09-.09.14-.13.22-.2.44-.39.66-.59.04-.04.09-.08.14-.12.06-.05.11-.1.18-.15.17-.15.34-.3.52-.44.04-.03.07-.06.1-.09.25-.21.5-.41.75-.61.08-.06.15-.12.23-.18.22-.18.44-.34.66-.51.1-.08.2-.15.3-.23.21-.15.41-.31.63-.46.11-.08.22-.16.33-.24.2-.15.41-.29.61-.43.19-.13.38-.26.57-.39.93-.61,1.87-1.18,2.84-1.72.14-.08.29-.16.43-.23.16-.09.32-.18.48-.26.21-.11.43-.22.64-.33,1.21-.63,2.46-1.19,3.74-1.7.11-.05.23-.09.34-.14.04-.02.08-.03.12-.05.16-.06.32-.12.48-.18.15-.05.29-.11.44-.16.21-.08.43-.15.65-.23.13-.04.26-.09.39-.13.23-.08.46-.15.69-.23.12-.04.24-.08.36-.11.24-.08.48-.15.73-.22.1-.03.21-.06.31-.09.04-.01.08-.02.12-.03.22-.06.44-.13.66-.19.08-.02.16-.04.23-.06,1.62-.43,3.28-.76,4.96-1.01.07-.01.14-.02.21-.03.29-.04.58-.08.86-.11.09-.01.18-.02.27-.03.29-.04.56-.06.85-.09.1,0,.19-.01.29-.03.28-.03.57-.05.86-.07.09,0,.17-.01.26-.02.3-.02.6-.04.9-.05.05,0,.1,0,.15,0,.7-.03,1.4-.05,2.1-.05s1.41.02,2.11.05c.05,0,.1,0,.15,0,.3.01.6.04.91.05.08,0,.17.01.25.02.29.02.57.05.86.07.09.01.19.02.28.03.28.03.57.06.85.09.09.01.18.02.27.03.29.04.58.07.86.11.07.01.15.02.22.03.3.05.61.09.91.14.01,0,.02,0,.04,0,1.35.23,2.69.51,4,.86.08.02.16.04.25.06.22.06.45.12.67.19.03.01.06.02.09.02.11.03.22.06.34.1.23.07.47.14.7.21.13.04.26.08.39.12.22.07.44.15.66.22.14.05.29.1.43.15.21.07.41.14.61.21.17.06.34.13.5.19.15.05.29.11.44.17.03.01.06.02.1.04.14.05.28.11.41.17,1.26.51,2.49,1.07,3.69,1.69.21.11.42.22.63.33.16.09.32.17.48.26.12.07.25.14.37.21.4.22.8.45,1.19.69.15.09.3.18.44.27.2.13.4.25.6.38.22.14.44.28.65.42.18.12.36.24.54.36.23.15.45.31.67.46.09.07.19.14.28.2.23.16.45.32.67.49.09.06.18.14.27.2.22.16.43.33.64.5.1.07.2.15.29.23.2.16.39.32.59.48.12.1.24.2.36.3.15.13.3.25.45.38.14.12.27.24.41.36.14.13.28.25.42.37.15.13.29.26.43.4.13.12.25.24.38.35.16.16.33.31.49.47.1.1.21.2.31.3.26.26.51.52.76.78,0,0,0,.01.01.01.26.28.52.55.77.83.01.01.02.02.03.03-2.16-.48-4.38-.71-6.59-.71-7.79,0-15.58,2.97-21.52,8.91-2.56,2.56-4.57,5.47-6.03,8.57-1.46-3.1-3.47-6.01-6.03-8.57-5.94-5.94-13.73-8.91-21.51-8.91-2.21,0-4.42.24-6.59.71.02-.03.05-.06.08-.09ZM14.11,60.28c0-.71.02-1.42.05-2.13.01-.35.04-.69.06-1.04,0-.02,0-.04,0-.05.01-.25.04-.5.06-.75,0-.07.01-.13.02-.19.01-.16.03-.32.04-.49.01-.12.02-.24.04-.36.02-.2.04-.4.07-.59,0-.04.01-.08.02-.13.03-.25.06-.51.1-.77.16-1.15.36-2.28.61-3.39.38-1.75.86-3.46,1.44-5.13.06-.18.13-.36.19-.54.06-.16.11-.31.17-.46.07-.19.14-.37.21-.55.06-.17.13-.34.2-.51.07-.17.14-.34.21-.51.15-.37.31-.74.47-1.1.06-.14.12-.27.18-.41.13-.28.26-.55.39-.83.13-.26.26-.53.39-.79.02-.04.04-.09.07-.13.1-.21.2-.41.31-.61.05-.1.1-.2.16-.3.08-.16.17-.32.25-.48.08-.14.16-.28.24-.42.04-.08.09-.16.14-.24.1-.19.21-.37.32-.55.05-.09.1-.17.15-.25.1-.17.2-.34.31-.51.02-.04.05-.09.08-.13.14-.23.28-.45.42-.67.15-.23.3-.46.45-.69.01-.02.02-.04.04-.06.15-.22.3-.44.45-.66.33-.46.66-.93,1-1.38.85-1.13,1.76-2.22,2.71-3.26l19.77,19.77c-1.98-.41-4.03-.62-6.13-.62-10.79,0-20.26,5.62-25.67,14.08v-2.16ZM14.11,62.45h27.98c-1.66,1.1-3.23,2.39-4.69,3.85-7.63,7.63-10.36,18.3-8.2,28.11-3.12-.5-6.32-.76-9.58-.76-1.86,0-3.7.08-5.51.25v-31.44Z"/><polygon class="cls-1" points="166.75 125.84 177.97 125.84 177.97 46.35 186.97 46.35 186.97 35.13 177.97 35.13 166.75 35.13 157.75 35.13 157.75 46.35 166.75 46.35 166.75 125.84"/><path class="cls-1" d="M193.26,125.84h25.73v-11.21h-14.51v-28.53h14.51v-11.22h-14.51v-28.52h14.51s0,0,0,0v-11.22h-9.29s-.06,0-.1,0h-16.35v90.7Z"/><path class="cls-1" d="M237.52,86.09h10.44v39.74h11.22V35.13h-16.44c-9.07,0-16.45,7.38-16.45,16.45v74.26h11.22v-39.74ZM242.75,46.35h5.22v28.52h-10.44v-23.29c0-2.89,2.34-5.23,5.23-5.23Z"/><path class="cls-1" d="M502.18,109.4v-57.82c0-9.07-7.36-16.45-16.44-16.45h-16.43v90.71h16.43c9.08,0,16.44-7.37,16.44-16.44ZM480.52,46.35h5.23c2.88,0,5.24,2.34,5.24,5.23v57.82c0,2.88-2.36,5.23-5.24,5.23h-5.23V46.35Z"/><path class="cls-1" d="M443.25,125.84c9.07,0,16.44-7.37,16.44-16.44V35.13h-11.21v74.26c0,2.88-2.34,5.23-5.23,5.23s-5.23-2.34-5.23-5.23V35.13h-11.21v74.26c0,9.07,7.38,16.44,16.44,16.44Z"/><rect class="cls-1" x="511.81" y="35.13" width="11.21" height="90.7"/><path class="cls-1" d="M358.26,125.84c9.07,0,16.44-7.38,16.44-16.44v-17.36c0-4.39-1.71-8.52-4.82-11.63l-15.32-15.32c-.99-.99-1.53-2.3-1.53-3.7v-9.82c0-2.88,2.34-5.23,5.23-5.23s5.23,2.35,5.23,5.23v13.48h11.21v-13.48c0-9.07-7.38-16.44-16.44-16.44s-16.44,7.38-16.44,16.44v9.82c0,4.39,1.71,8.52,4.82,11.63l15.32,15.32c.99.99,1.53,2.3,1.53,3.7v17.36c0,2.88-2.34,5.23-5.23,5.23s-5.23-2.34-5.23-5.23v-18.67h-11.21v18.67c0,9.07,7.38,16.44,16.44,16.44Z"/><path class="cls-1" d="M279.89,51.58c0-2.88,2.34-5.23,5.23-5.23h5.22v79.49h11.21V46.35h10.45v79.49h11.21V35.13h-38.1c-9.07,0-16.44,7.38-16.44,16.44v74.26h11.21V51.58Z"/><path class="cls-1" d="M395.52,86.09h10.47v39.74h11.2V35.13h-16.43c-9.07,0-16.44,7.38-16.44,16.45v74.26h11.2v-39.74ZM395.52,51.58c0-2.89,2.35-5.23,5.24-5.23h5.23v21.84h-.01v6.68h-10.44v-6.68h-.01v-16.61Z"/></svg>